<svg width="30" height="30" viewBox="0 0 30 30" fill="none" xmlns="http://www.w3.org/2000/svg">
<path d="M0 15C0 6.71573 6.71573 0 15 0C23.2843 0 30 6.71573 30 15C30 23.2843 23.2843 30 15 30C6.71573 30 0 23.2843 0 15Z" fill="white" fill-opacity="0.3"/>
<path d="M18.3875 8.38751C17.9 7.90001 17.1125 7.90001 16.625 8.38751L10.8875 14.125C10.4 14.6125 10.4 15.4 10.8875 15.8875L16.625 21.625C17.1125 22.1125 17.9 22.1125 18.3875 21.625C18.875 21.1375 18.875 20.35 18.3875 19.8625L13.5375 15L18.3875 10.15C18.875 9.66251 18.8625 8.86251 18.3875 8.38751Z" fill="white"/>
</svg>
